<svg xmlns="http://www.w3.org/2000/svg" version="1.1" xmlns:xlink="http://www.w3.org/1999/xlink" xmlns:svgjs="http://svgjs.dev/svgjs" width="100%" height="100%" viewBox="0 0 1000 600"><rect width="1000" height="600" x="0" y="0" fill="#da6f01"/><g><circle r="166.66666666666666" cx="314.11205546061194" cy="336.33429955332974" fill="#3a3a3c" transform="matrix(0.8477712474738652,0,0,0.8477712474738652,0,14.865424514731615)"/><path d="M375.43252834447765 403.39927192530547L386.24747952710396 403.6137327136295L386.24747952710396 411.33432109329476L333.09184127821834 411.33432109329476L303.0979681683284 352.204418026811L303.74135053330053 351.775496450163Q298.6862033799483 352.204418026811 289.40311497106507 352.663976858934L289.40311497106507 352.663976858934L289.40311497106507 403.39927192530547L300.2180661536914 403.6137327136295L300.2180661536914 411.33432109329476L241.97664349597864 411.33432109329476L241.97664349597864 403.6137327136295L252.79159467860495 403.39927192530547L252.79159467860495 271.47524985054963L241.97664349597864 271.2607890622256L241.97664349597864 263.54020068256034L284.56242860603686 263.9691222592084L317.4362037305639 261.33431828837024Q333.30630206654234 261.33431828837024 344.67272384771616 267.186034084069Q356.03914562888997 273.0377498797676 361.8602241691138 282.84167163172344Q367.7119399648125 292.6455933836793 367.7119399648125 304.56348576340065L367.7119399648125 304.56348576340065Q367.7119399648125 318.2583389606639 359.7768907968232 328.39927052284327Q351.8418416288339 338.54020208502254 335.94110603738056 344.7289276909447L335.94110603738056 344.7289276909447L375.43252834447765 403.39927192530547ZM289.40311497106507 271.2607890622256L289.40311497106507 344.05490807049773Q307.7241937450326 342.95196687340274 318.07958609553594 334.00588827474303Q328.46561570151414 325.0904469315582 328.46561570151414 309.8637309605517L328.46561570151414 309.8637309605517Q328.46561570151414 299.04877977792546 323.3798312926871 290.2252502011652Q318.29404688386 281.4017206244049 309.4705173070997 276.3465734710527Q300.64698773033945 271.2607890622256 289.40311497106507 271.2607890622256L289.40311497106507 271.2607890622256Z " fill="#da6f01" transform="matrix(0.8477712474738652,0,0,0.8477712474738652,0,14.865424514731615)"/><path d="M625.0027259531005 355.0682669513874Q631.7897651307899 355.0682669513874 638.1057795075039 352.28493858198794Q644.4217938842181 349.52302043081465 649.8171688772078 344.27751696540804L649.8171688772078 344.27751696540804L653.8208796854977 348.7522525746732Q634.8728365553554 372.7959276426392 610.3581366864141 372.7959276426392L610.3581366864141 372.7959276426392Q596.3344437482862 372.7959276426392 585.9290776903774 366.4799132659251Q575.5237116324688 360.16389888921094 569.8071833660869 348.60238104709026Q564.1120653179311 337.04086320496947 564.1120653179311 321.4542243363326L564.1120653179311 321.4542243363326Q564.1120653179311 308.0514277267629 569.2719279104331 295.4836296280131Q574.4317905029352 282.9158315292633 582.4606223377413 275.3794347136587L582.4606223377413 275.3794347136587Q590.3181724267381 270.28380277583506 599.3318742999471 267.5861152793402Q608.3455761731561 264.8884277828454 617.1451758641035 264.8884277828454L617.1451758641035 264.8884277828454Q628.8565652338074 264.8884277828454 638.6410349631577 269.89841884776445Q648.4255046925081 274.9084099126834 654.14203295889 283.85788113121396L654.14203295889 283.85788113121396L635.1725796105216 299.7228528367907Q627.1651579939415 285.54928837107974 615.903383206987 269.0420101187184L615.903383206987 269.0420101187184Q609.1163440292975 271.82533848811784 603.5710975087247 278.6123776658073Q598.025850988152 285.3994168434967 594.8571386906818 294.79850264477636Q591.7098366114378 304.197588446056 591.7098366114378 314.36744210347706L591.7098366114378 314.36744210347706Q591.7098366114378 333.7865100345947 600.4023852112546 344.4273884929911Q609.1163440292975 355.0682669513874 625.0027259531005 355.0682669513874L625.0027259531005 355.0682669513874ZM703.4711757519386 301.1145170214904L729.9770259159118 301.1145170214904L729.9770259159118 306.0388672135049L725.5022903066465 306.2101489593141L705.9333508479458 351.6854524716557Q697.9045190131397 370.63349560179813 689.3618419409061 386.3700059980181Q680.7977546504462 402.0851061760118 673.8608439451738 411.33432044970846L673.8608439451738 411.33432044970846L655.6835686711728 394.0776845594319Q674.7814833288982 383.1156528276433 689.8970973965597 370.01259927323974L689.8970973965597 370.01259927323974L681.4186509790046 370.4836240742151L657.6747189662046 306.2101489593141L653.1999833569395 306.0388672135049L653.1999833569395 301.1145170214904L689.7472258689768 301.1145170214904L689.7472258689768 306.0388672135049L683.2599297464534 306.2101489593141L697.3050329028075 353.37685971152155L709.9370616562358 306.2101489593141L703.4711757519386 306.0388672135049L703.4711757519386 301.1145170214904ZM772.9901543322462 355.0682669513874Q782.539111661109 355.0682669513874 791.6384544072225 348.13135624611493L791.6384544072225 348.13135624611493L794.1006295032298 350.9146846155144Q788.405511455074 360.7633849995432 779.8414241646142 366.77965632109124Q771.2987470923804 372.7959276426392 761.4286364901255 372.7959276426392L761.4286364901255 372.7959276426392Q747.5548150795805 372.7959276426392 739.3118810625131 363.461072496038Q731.0475368272192 354.147627567663 731.0475368272192 338.26124564386L731.0475368272192 338.26124564386Q731.0475368272192 328.86215984258035 734.9013761079261 319.6129455688837Q738.7552153886331 310.3637312951871 744.7714867101811 304.197588446056L744.7714867101811 304.197588446056Q750.0169901755878 301.58554182246576 755.7121082237436 300.19387763776604Q761.4286364901255 298.8022134530663 766.6741399555322 298.8022134530663L766.6741399555322 298.8022134530663Q775.7520724834196 298.8022134530663 782.8602649345012 303.7265636450808Q789.9470471673567 308.67232405532127 794.2505010308128 318.0714098566009L794.2505010308128 318.0714098566009L776.522840339561 328.391135041605Q774.0606652435538 321.4542243363326 769.9070829076807 314.36744210347706Q765.7320903535816 307.28065987062155 762.649018929016 304.6686132470313L762.649018929016 304.6686132470313Q758.645308120726 308.5224525277382 755.7977490966482 315.8447471610814Q752.9501900725703 323.16704179442456 752.9501900725703 330.87472035583835L752.9501900725703 330.87472035583835Q752.9501900725703 342.73598125312526 758.1956935379769 348.90212410225627Q763.4197867851574 355.0682669513874 772.9901543322462 355.0682669513874L772.9901543322462 355.0682669513874ZM796.4129330716539 370.4836240742151L796.4129330716539 366.0088884649498L802.1294613380358 365.5592738822006L801.3586934818944 273.21700267281756L795.4922936879294 274.43738511170807L793.9507579756466 269.98405972066905L822.4691686528779 261.3343315573046L824.6316006937191 265.03829931042844L823.8608328375776 365.5592738822006L829.5559508857334 366.0088884649498L829.5559508857334 370.4836240742151L796.4129330716539 370.4836240742151ZM843.1300292411122 284.6286489873553L843.1300292411122 268.5923955359693L862.8488402273961 264.11765992670405L862.8488402273961 281.6954490903728L843.1300292411122 284.6286489873553ZM864.8614007406541 302.50618120619015L864.3903759396787 365.5592738822006L870.1069042060607 366.0088884649498L870.1069042060607 370.4836240742151L836.9638863919811 370.4836240742151L836.9638863919811 366.0088884649498L842.659004440137 365.5592738822006L842.2093898573878 310.6634743503532L836.3429900634228 311.9052670074699L834.8014543511401 307.4305313982046L862.6989686998129 298.8022134530663L864.8614007406541 302.50618120619015ZM946.4129219640578 365.5592738822006L951.9581684846305 366.0088884649498L951.9581684846305 370.4836240742151L918.965022198134 370.4836240742151L918.965022198134 366.0088884649498L924.681550464516 365.5592738822006L924.681550464516 333.01574217845337Q924.681550464516 326.25011321899 920.8919418384875 322.5461454658662Q917.1237434306852 318.84217771274234 910.4865757805787 318.6923061851593L910.4865757805787 318.6923061851593L905.5622255885644 323.7665279047567L904.941329260006 365.5592738822006L910.6364473081619 366.0088884649498L910.6364473081619 370.4836240742151L877.4934294940823 370.4836240742151L877.4934294940823 366.0088884649498L883.2099577604642 365.5592738822006L882.7389329594889 310.3637312951871L876.8939433837501 311.75539547988683L875.3524076714673 307.1307883430385L899.6958257945994 299.57298130920776L905.0912007875891 316.82961719948423L917.8945112868266 298.5024703979002Q932.5391005535129 298.5024703979002 939.4760112587853 305.43938110317265Q946.4129219640578 312.3762918084451 946.4129219640578 326.84959932932225L946.4129219640578 326.84959932932225L946.4129219640578 365.5592738822006ZM1002.8288469899618 361.8553061290768Q1011.4571649351001 362.47620245763517 1017.5590771295529 365.3879921363915Q1023.6395791057793 368.3211920333739 1027.0223935855108 373.0956706978053L1027.0223935855108 373.0956706978053Q1024.1106039067545 381.8952703887528 1017.7089486571358 390.37371680630804Q1011.3072934075171 398.8521632238633 1002.2935915343081 404.3117688715314Q993.2798896610992 409.7927847374257 982.9387542578689 409.7927847374257L982.9387542578689 409.7927847374257Q972.9187721280309 409.7927847374257 966.8382701518044 404.7827936725066Q960.7363579573517 399.77280260758766 960.7363579573517 392.0651240461739L960.7363579573517 392.0651240461739Q960.7363579573517 385.59923814187664 963.9907111277265 377.4205347794875L963.9907111277265 377.4205347794875Q958.4240543889277 374.8084881558973 954.74149685403 368.0214489782079L954.74149685403 368.0214489782079L970.3067255044407 350.5935313421221Q964.4403257104757 347.3605883899735 961.1217418854226 341.8795725240792Q957.8245682785955 336.4199668764111 957.8245682785955 329.6329276987217L957.8245682785955 329.6329276987217Q957.8245682785955 323.3169133220076 960.4366149021857 317.1507704728765Q963.048661525776 310.9846276237454 967.0737825522921 306.65976354206316L967.0737825522921 306.65976354206316Q970.927621832999 303.42682058991466 977.4791486102008 301.1145170214904Q984.0306753874025 298.8022134530663 991.2673291478411 298.8022134530663L991.2673291478411 298.8022134530663Q996.5128326132477 298.8022134530663 1000.3666718939546 299.87272436437377L1000.3666718939546 299.87272436437377L1013.1485721749659 278.141352864832Q1016.2316435995315 277.5204565362736 1019.6358682974893 277.5204565362736L1019.6358682974893 277.5204565362736Q1026.1017542017864 277.5204565362736 1032.1180255233344 280.15391337809L1032.1180255233344 280.15391337809L1021.327275537355 300.19387763776604Q1016.4029253453407 298.1813171245079 1011.6070364626833 298.1813171245079L1011.6070364626833 298.1813171245079Q1010.0655007504005 298.1813171245079 1007.6033256543932 298.5024703979002L1007.6033256543932 298.5024703979002L1005.2910220859691 301.58554182246576Q1012.2279327912415 304.6686132470313 1016.2316435995315 310.51360282277017Q1020.2567646260477 316.38000261673506 1020.2567646260477 324.08768117814896L1020.2567646260477 324.08768117814896Q1020.2567646260477 330.103952499697 1017.5590771295529 336.03458294834036Q1014.8613896330579 341.9652133969838 1011.007550352351 346.7396920614152L1011.007550352351 346.7396920614152Q1007.153711071644 350.1439167593729 1000.6021842944423 352.37057945489255Q994.0506575172406 354.59724215041206 986.9424650661589 354.59724215041206L986.9424650661589 354.59724215041206Q980.1768361066956 354.59724215041206 974.4603078403136 352.45622032779715L974.4603078403136 352.45622032779715L970.927621832999 356.7596741912532Q971.8482612167234 358.15133837595295 974.931332641289 359.2218492872604Q978.0144040658546 360.313770416794 982.3178579293105 360.46364194437706L982.3178579293105 360.46364194437706L1002.8288469899618 361.8553061290768ZM999.8956470929794 329.78279922630475Q999.8956470929794 320.23384189744206 994.971296900965 314.8384669044524Q990.0255364907244 309.4430919114626 981.09747549042 308.20129925434594L981.09747549042 308.20129925434594Q978.1642755934377 316.6797456719012 978.1642755934377 323.9378096505659L978.1642755934377 323.9378096505659Q978.1642755934377 333.1870239242626 983.088625785452 338.58239891725225Q988.0343861956925 343.9777739102419 997.1337289418061 345.19815634913243L997.1337289418061 345.19815634913243Q999.8956470929794 337.96150258869386 999.8956470929794 329.78279922630475L999.8956470929794 329.78279922630475ZM991.4172006754242 393.60665975845654Q996.0418078122725 393.60665975845654 1000.5165434215378 392.60037950182755Q1004.9912790308031 391.59409924519855 1008.0743504553685 390.223845278725Q1011.1574218799341 388.83218109402526 1011.7783182084925 387.74025996449166L1011.7783182084925 387.74025996449166Q1010.8362686065418 385.59923814187664 1006.2973023425981 383.50103675571404Q1001.7583360786543 381.4242455877775 993.5796327162652 380.9746310050283L993.5796327162652 380.9746310050283L976.4728683535718 380.03258140307776Q973.5396684565892 379.8827098754947 969.3860861207163 379.2618135469364L969.3860861207163 379.2618135469364Q970.1568539768575 385.42795639606743 976.0874844255011 389.517308077262Q982.0181148741444 393.60665975845654 991.4172006754242 393.60665975845654L991.4172006754242 393.60665975845654Z " fill="#3a3a3c" transform="matrix(0.8477712474738652,0,0,0.8477712474738652,0,14.865424514731615)"/></g></svg>